# xmcd
#
# Track frame offsets: 
#        150
#        17474
#        28924
#        44479
#        59327
#        75814
#        88457
#        100999
#        114386
#        127512
#        141568
#        157585
#        171725
#        189314
#        205329
#        219351
#        230888
#
# Disc length: 3270 seconds
#
# Revision: 2
# Processed by: cddbd v1.5.2PL0 Copyright (c) Steve Scherf et al.
# Submitted via: ExactAudioCopy v0.99pb5
#
DISCID=e60cc411
DTITLE=Various Artist - Pure... Country Stars - CD 4
DYEAR=2014
DGENRE=Country
TTITLE0=Ricky Skaggs - Country boy
TTITLE1=Waylon Jennings and Willie Nelson - Mammas don't let your babies
TTITLE1=grow up to be cowboys
TTITLE2=Charlie Daniels Band - Boogie woogie fiddle country blues
TTITLE3=Brooks and Dunn - Boot scootin' boogie
TTITLE4=Shenandoah - Next to you, next to me
TTITLE5=Clint Black - Summer's comin'
TTITLE6=Waylon Jennings - I'm a ramblin' man
TTITLE7=Tammy Cochran - Love won't let me
TTITLE8=Larry Gatlin and The Gatlin Brothers - Houston (means I'm one da
TTITLE8=y closer to you)
TTITLE9=Exile - Woke up in love
TTITLE10=Ty Herndon - It must be love
TTITLE11=Doug Stone - Made for lovin' you
TTITLE12=Phil Vassar - Just another day in paradise
TTITLE13=Don Williams - I've been loved by the best
TTITLE14=Ricky van Shelton - I'll leave this world loving you
TTITLE15=Jim Reeves - Welcome to my world
TTITLE16=John Denver - Thank God I'm a country boy (Live)
EXTD=
EXTT0=
EXTT1=
EXTT2=
EXTT3=
EXTT4=
EXTT5=
EXTT6=
EXTT7=
EXTT8=
EXTT9=
EXTT10=
EXTT11=
EXTT12=
EXTT13=
EXTT14=
EXTT15=
EXTT16=
PLAYORDER=
